<mxfile host="app.diagrams.net" modified="2024-01-12T11:42:55.124Z" agent="Mozilla/5.0 (Windows NT 10.0; Win64; x64) AppleWebKit/537.36 (KHTML, like Gecko) Chrome/120.0.0.0 Safari/537.36" etag="GPR6IocpA2zN_n9FlUX1" version="22.1.18" type="device">
  <diagram name="Page-1" id="3pZ38txil8oSTNIGBTkw">
    <mxGraphModel dx="1354" dy="720" grid="0" gridSize="10" guides="1" tooltips="1" connect="1" arrows="1" fold="1" page="1" pageScale="1" pageWidth="1169" pageHeight="827" math="0" shadow="0">
      <root>
        <mxCell id="0" />
        <mxCell id="1" parent="0" />
        <mxCell id="rFjTU0MIjuArIsRoF-h4-2" value="&lt;p&gt;&lt;b&gt;&lt;font style=&quot;font-size: 22px;&quot;&gt;Smart Grow Controller&lt;/font&gt;&lt;br&gt;&lt;/b&gt;Plant Monitoring System, Version: v1.0&lt;/p&gt;" style="text;html=1;strokeColor=none;fillColor=none;align=left;verticalAlign=middle;whiteSpace=wrap;rounded=0;fontFamily=Verdana;" parent="1" vertex="1">
          <mxGeometry x="17" y="19" width="370" height="99" as="geometry" />
        </mxCell>
        <mxCell id="rFjTU0MIjuArIsRoF-h4-5" value="" style="sketch=0;pointerEvents=1;shadow=0;dashed=0;html=1;strokeColor=none;fillColor=#434445;aspect=fixed;labelPosition=center;verticalLabelPosition=bottom;verticalAlign=top;align=center;outlineConnect=0;shape=mxgraph.vvd.nsx_dashboard;" parent="1" vertex="1">
          <mxGeometry x="898" y="969" width="127.95" height="119" as="geometry" />
        </mxCell>
        <mxCell id="rFjTU0MIjuArIsRoF-h4-10" value="Dashboard" style="text;html=1;strokeColor=none;fillColor=none;align=center;verticalAlign=middle;whiteSpace=wrap;rounded=0;fontStyle=0" parent="1" vertex="1">
          <mxGeometry x="887" y="944" width="97" height="30" as="geometry" />
        </mxCell>
        <mxCell id="JThPRsLybrjbALJcfgjY-14" style="edgeStyle=orthogonalEdgeStyle;rounded=0;orthogonalLoop=1;jettySize=auto;html=1;exitX=0.5;exitY=0;exitDx=0;exitDy=0;" edge="1" parent="1" source="rFjTU0MIjuArIsRoF-h4-16">
          <mxGeometry relative="1" as="geometry">
            <mxPoint x="326.5" y="205" as="targetPoint" />
          </mxGeometry>
        </mxCell>
        <mxCell id="JThPRsLybrjbALJcfgjY-41" style="edgeStyle=orthogonalEdgeStyle;rounded=0;orthogonalLoop=1;jettySize=auto;html=1;exitX=1;exitY=0.25;exitDx=0;exitDy=0;entryX=0;entryY=0.5;entryDx=0;entryDy=0;" edge="1" parent="1">
          <mxGeometry relative="1" as="geometry">
            <mxPoint x="401.75" y="318.25" as="sourcePoint" />
            <mxPoint x="470" y="268.49999999999994" as="targetPoint" />
            <Array as="points">
              <mxPoint x="402" y="268" />
              <mxPoint x="436" y="268" />
            </Array>
          </mxGeometry>
        </mxCell>
        <mxCell id="JThPRsLybrjbALJcfgjY-94" style="edgeStyle=orthogonalEdgeStyle;rounded=0;orthogonalLoop=1;jettySize=auto;html=1;exitX=0.577;exitY=1.004;exitDx=0;exitDy=0;entryX=0.5;entryY=0;entryDx=0;entryDy=0;startArrow=none;startFill=0;exitPerimeter=0;" edge="1" parent="1" source="rFjTU0MIjuArIsRoF-h4-16" target="JThPRsLybrjbALJcfgjY-91">
          <mxGeometry relative="1" as="geometry">
            <Array as="points">
              <mxPoint x="338" y="711" />
              <mxPoint x="503" y="711" />
            </Array>
          </mxGeometry>
        </mxCell>
        <mxCell id="rFjTU0MIjuArIsRoF-h4-16" value="ESP32" style="rounded=1;whiteSpace=wrap;html=1;absoluteArcSize=1;arcSize=14;strokeWidth=2;" parent="1" vertex="1">
          <mxGeometry x="252" y="252" width="149.75" height="213" as="geometry" />
        </mxCell>
        <mxCell id="JThPRsLybrjbALJcfgjY-31" style="edgeStyle=orthogonalEdgeStyle;rounded=0;orthogonalLoop=1;jettySize=auto;html=1;exitX=1;exitY=0.5;exitDx=0;exitDy=0;entryX=0;entryY=0.5;entryDx=0;entryDy=0;" edge="1" parent="1" source="rFjTU0MIjuArIsRoF-h4-17" target="JThPRsLybrjbALJcfgjY-16">
          <mxGeometry relative="1" as="geometry">
            <Array as="points">
              <mxPoint x="891" y="366" />
            </Array>
          </mxGeometry>
        </mxCell>
        <mxCell id="rFjTU0MIjuArIsRoF-h4-17" value="ESP32" style="rounded=1;whiteSpace=wrap;html=1;absoluteArcSize=1;arcSize=14;strokeWidth=2;" parent="1" vertex="1">
          <mxGeometry x="799" y="250" width="148" height="212" as="geometry" />
        </mxCell>
        <mxCell id="rFjTU0MIjuArIsRoF-h4-18" value="Digital Display" style="rounded=1;whiteSpace=wrap;html=1;absoluteArcSize=1;arcSize=14;strokeWidth=2;" parent="1" vertex="1">
          <mxGeometry x="273" y="168" width="116" height="36" as="geometry" />
        </mxCell>
        <mxCell id="rFjTU0MIjuArIsRoF-h4-19" value="Air Pressure" style="rounded=1;whiteSpace=wrap;html=1;absoluteArcSize=1;arcSize=14;strokeWidth=2;" parent="1" vertex="1">
          <mxGeometry x="42" y="231" width="116" height="36" as="geometry" />
        </mxCell>
        <mxCell id="rFjTU0MIjuArIsRoF-h4-20" value="Temperature &amp;amp;&lt;br&gt;Humidity" style="rounded=1;whiteSpace=wrap;html=1;absoluteArcSize=1;arcSize=14;strokeWidth=2;" parent="1" vertex="1">
          <mxGeometry x="42" y="278.5" width="116" height="41.5" as="geometry" />
        </mxCell>
        <mxCell id="JThPRsLybrjbALJcfgjY-3" style="edgeStyle=orthogonalEdgeStyle;rounded=0;orthogonalLoop=1;jettySize=auto;html=1;exitX=1;exitY=0.5;exitDx=0;exitDy=0;" edge="1" parent="1" source="rFjTU0MIjuArIsRoF-h4-22">
          <mxGeometry relative="1" as="geometry">
            <mxPoint x="250.85714285714278" y="350.57142857142856" as="targetPoint" />
          </mxGeometry>
        </mxCell>
        <mxCell id="rFjTU0MIjuArIsRoF-h4-22" value="CO&lt;sub&gt;2 &lt;/sub&gt;Sensor" style="rounded=1;whiteSpace=wrap;html=1;absoluteArcSize=1;arcSize=14;strokeWidth=2;" parent="1" vertex="1">
          <mxGeometry x="42" y="332.75" width="116" height="36" as="geometry" />
        </mxCell>
        <mxCell id="rFjTU0MIjuArIsRoF-h4-23" value="Soil Moisture &amp;amp;&lt;br&gt;Soil Temperature" style="rounded=1;whiteSpace=wrap;html=1;absoluteArcSize=1;arcSize=14;strokeWidth=2;" parent="1" vertex="1">
          <mxGeometry x="42" y="380" width="116" height="48" as="geometry" />
        </mxCell>
        <mxCell id="rFjTU0MIjuArIsRoF-h4-24" value="pH Sensor" style="rounded=1;whiteSpace=wrap;html=1;absoluteArcSize=1;arcSize=14;strokeWidth=2;" parent="1" vertex="1">
          <mxGeometry x="42" y="439" width="116" height="36" as="geometry" />
        </mxCell>
        <mxCell id="JThPRsLybrjbALJcfgjY-2" style="edgeStyle=orthogonalEdgeStyle;rounded=0;orthogonalLoop=1;jettySize=auto;html=1;exitX=1;exitY=0.5;exitDx=0;exitDy=0;entryX=-0.011;entryY=0.713;entryDx=0;entryDy=0;entryPerimeter=0;" edge="1" parent="1">
          <mxGeometry relative="1" as="geometry">
            <mxPoint x="159" y="404" as="sourcePoint" />
            <mxPoint x="251.35275000000001" y="403.8689999999999" as="targetPoint" />
          </mxGeometry>
        </mxCell>
        <mxCell id="JThPRsLybrjbALJcfgjY-4" style="edgeStyle=orthogonalEdgeStyle;rounded=0;orthogonalLoop=1;jettySize=auto;html=1;entryX=-0.001;entryY=0.224;entryDx=0;entryDy=0;entryPerimeter=0;" edge="1" parent="1" source="rFjTU0MIjuArIsRoF-h4-20" target="rFjTU0MIjuArIsRoF-h4-16">
          <mxGeometry relative="1" as="geometry" />
        </mxCell>
        <mxCell id="JThPRsLybrjbALJcfgjY-6" style="edgeStyle=orthogonalEdgeStyle;rounded=0;orthogonalLoop=1;jettySize=auto;html=1;exitX=1;exitY=0.5;exitDx=0;exitDy=0;entryX=-0.001;entryY=0.845;entryDx=0;entryDy=0;entryPerimeter=0;" edge="1" parent="1" source="rFjTU0MIjuArIsRoF-h4-24" target="rFjTU0MIjuArIsRoF-h4-16">
          <mxGeometry relative="1" as="geometry" />
        </mxCell>
        <mxCell id="JThPRsLybrjbALJcfgjY-7" style="edgeStyle=orthogonalEdgeStyle;rounded=0;orthogonalLoop=1;jettySize=auto;html=1;exitX=1;exitY=0.5;exitDx=0;exitDy=0;entryX=-0.014;entryY=0.094;entryDx=0;entryDy=0;entryPerimeter=0;" edge="1" parent="1" source="rFjTU0MIjuArIsRoF-h4-19" target="rFjTU0MIjuArIsRoF-h4-16">
          <mxGeometry relative="1" as="geometry" />
        </mxCell>
        <mxCell id="JThPRsLybrjbALJcfgjY-8" value="Analog" style="text;html=1;strokeColor=none;fillColor=none;align=center;verticalAlign=middle;whiteSpace=wrap;rounded=0;" vertex="1" parent="1">
          <mxGeometry x="152" y="433" width="60" height="30" as="geometry" />
        </mxCell>
        <mxCell id="JThPRsLybrjbALJcfgjY-9" value="Analog" style="text;html=1;strokeColor=none;fillColor=none;align=center;verticalAlign=middle;whiteSpace=wrap;rounded=0;" vertex="1" parent="1">
          <mxGeometry x="155" y="328" width="60" height="30" as="geometry" />
        </mxCell>
        <mxCell id="JThPRsLybrjbALJcfgjY-10" value="RS-485" style="text;html=1;strokeColor=none;fillColor=none;align=center;verticalAlign=middle;whiteSpace=wrap;rounded=0;" vertex="1" parent="1">
          <mxGeometry x="155" y="380" width="60" height="30" as="geometry" />
        </mxCell>
        <mxCell id="JThPRsLybrjbALJcfgjY-11" value="Analog" style="text;html=1;strokeColor=none;fillColor=none;align=center;verticalAlign=middle;whiteSpace=wrap;rounded=0;" vertex="1" parent="1">
          <mxGeometry x="155" y="276" width="60" height="30" as="geometry" />
        </mxCell>
        <mxCell id="JThPRsLybrjbALJcfgjY-12" value="I&lt;sup&gt;2&lt;/sup&gt;C" style="text;html=1;strokeColor=none;fillColor=none;align=center;verticalAlign=middle;whiteSpace=wrap;rounded=0;" vertex="1" parent="1">
          <mxGeometry x="152" y="226" width="60" height="30" as="geometry" />
        </mxCell>
        <mxCell id="JThPRsLybrjbALJcfgjY-13" value="7 Segment Display (3 Digit)" style="text;html=1;strokeColor=none;fillColor=none;align=left;verticalAlign=middle;whiteSpace=wrap;rounded=0;" vertex="1" parent="1">
          <mxGeometry x="288" y="132" width="96" height="30" as="geometry" />
        </mxCell>
        <mxCell id="JThPRsLybrjbALJcfgjY-28" style="edgeStyle=orthogonalEdgeStyle;rounded=0;orthogonalLoop=1;jettySize=auto;html=1;exitX=0.5;exitY=1;exitDx=0;exitDy=0;entryX=0.5;entryY=0;entryDx=0;entryDy=0;" edge="1" parent="1" source="JThPRsLybrjbALJcfgjY-15" target="JThPRsLybrjbALJcfgjY-16">
          <mxGeometry relative="1" as="geometry" />
        </mxCell>
        <mxCell id="JThPRsLybrjbALJcfgjY-15" value="Energy Meter" style="rounded=1;whiteSpace=wrap;html=1;absoluteArcSize=1;arcSize=14;strokeWidth=2;" vertex="1" parent="1">
          <mxGeometry x="996" y="274" width="116" height="38" as="geometry" />
        </mxCell>
        <mxCell id="JThPRsLybrjbALJcfgjY-29" style="edgeStyle=orthogonalEdgeStyle;rounded=0;orthogonalLoop=1;jettySize=auto;html=1;exitX=0.5;exitY=1;exitDx=0;exitDy=0;entryX=0.5;entryY=0;entryDx=0;entryDy=0;" edge="1" parent="1" source="JThPRsLybrjbALJcfgjY-16" target="JThPRsLybrjbALJcfgjY-26">
          <mxGeometry relative="1" as="geometry" />
        </mxCell>
        <mxCell id="JThPRsLybrjbALJcfgjY-16" value="Motor Driver" style="rounded=1;whiteSpace=wrap;html=1;absoluteArcSize=1;arcSize=14;strokeWidth=2;" vertex="1" parent="1">
          <mxGeometry x="996" y="345" width="116" height="41" as="geometry" />
        </mxCell>
        <mxCell id="JThPRsLybrjbALJcfgjY-68" style="edgeStyle=orthogonalEdgeStyle;rounded=0;orthogonalLoop=1;jettySize=auto;html=1;exitX=1;exitY=0.5;exitDx=0;exitDy=0;" edge="1" parent="1" source="JThPRsLybrjbALJcfgjY-17">
          <mxGeometry relative="1" as="geometry">
            <mxPoint x="797.9285714285716" y="350.5714285714286" as="targetPoint" />
            <mxPoint x="763" y="350.7499999999998" as="sourcePoint" />
          </mxGeometry>
        </mxCell>
        <mxCell id="JThPRsLybrjbALJcfgjY-17" value="Rotary Control" style="rounded=1;whiteSpace=wrap;html=1;absoluteArcSize=1;arcSize=14;strokeWidth=2;" vertex="1" parent="1">
          <mxGeometry x="641.5" y="325" width="100" height="51.5" as="geometry" />
        </mxCell>
        <mxCell id="JThPRsLybrjbALJcfgjY-27" style="edgeStyle=orthogonalEdgeStyle;rounded=0;orthogonalLoop=1;jettySize=auto;html=1;exitX=0.5;exitY=1;exitDx=0;exitDy=0;entryX=0.5;entryY=0;entryDx=0;entryDy=0;" edge="1" parent="1" source="JThPRsLybrjbALJcfgjY-23" target="JThPRsLybrjbALJcfgjY-15">
          <mxGeometry relative="1" as="geometry" />
        </mxCell>
        <mxCell id="JThPRsLybrjbALJcfgjY-23" value="Energy Source" style="rounded=1;whiteSpace=wrap;html=1;absoluteArcSize=1;arcSize=14;strokeWidth=2;" vertex="1" parent="1">
          <mxGeometry x="998" y="199" width="116" height="41" as="geometry" />
        </mxCell>
        <mxCell id="JThPRsLybrjbALJcfgjY-32" style="edgeStyle=orthogonalEdgeStyle;rounded=0;orthogonalLoop=1;jettySize=auto;html=1;exitX=0.5;exitY=1;exitDx=0;exitDy=0;entryX=0.5;entryY=0;entryDx=0;entryDy=0;" edge="1" parent="1" source="JThPRsLybrjbALJcfgjY-24" target="rFjTU0MIjuArIsRoF-h4-17">
          <mxGeometry relative="1" as="geometry" />
        </mxCell>
        <mxCell id="JThPRsLybrjbALJcfgjY-24" value="Limit Switch" style="rounded=1;whiteSpace=wrap;html=1;absoluteArcSize=1;arcSize=14;strokeWidth=2;" vertex="1" parent="1">
          <mxGeometry x="819" y="184" width="116" height="34" as="geometry" />
        </mxCell>
        <mxCell id="JThPRsLybrjbALJcfgjY-26" value="Motor&amp;nbsp;" style="rounded=1;whiteSpace=wrap;html=1;absoluteArcSize=1;arcSize=14;strokeWidth=2;" vertex="1" parent="1">
          <mxGeometry x="997" y="420" width="114" height="36" as="geometry" />
        </mxCell>
        <mxCell id="JThPRsLybrjbALJcfgjY-30" style="edgeStyle=orthogonalEdgeStyle;rounded=0;orthogonalLoop=1;jettySize=auto;html=1;exitX=0;exitY=0.5;exitDx=0;exitDy=0;entryX=0.999;entryY=0.204;entryDx=0;entryDy=0;entryPerimeter=0;" edge="1" parent="1" source="JThPRsLybrjbALJcfgjY-15" target="rFjTU0MIjuArIsRoF-h4-17">
          <mxGeometry relative="1" as="geometry" />
        </mxCell>
        <mxCell id="JThPRsLybrjbALJcfgjY-35" value="Electricity Control Switch &amp;amp; Meter 5" style="rounded=1;whiteSpace=wrap;html=1;absoluteArcSize=1;arcSize=14;strokeWidth=2;" vertex="1" parent="1">
          <mxGeometry x="470" y="437" width="128" height="44" as="geometry" />
        </mxCell>
        <mxCell id="JThPRsLybrjbALJcfgjY-83" style="edgeStyle=orthogonalEdgeStyle;rounded=0;orthogonalLoop=1;jettySize=auto;html=1;exitX=0.5;exitY=1;exitDx=0;exitDy=0;entryX=0.5;entryY=0;entryDx=0;entryDy=0;" edge="1" parent="1" source="JThPRsLybrjbALJcfgjY-36" target="JThPRsLybrjbALJcfgjY-37">
          <mxGeometry relative="1" as="geometry" />
        </mxCell>
        <mxCell id="JThPRsLybrjbALJcfgjY-36" value="Electricity Control Switch &amp;amp; Meter 1" style="rounded=1;whiteSpace=wrap;html=1;absoluteArcSize=1;arcSize=14;strokeWidth=2;" vertex="1" parent="1">
          <mxGeometry x="470" y="232" width="128" height="47" as="geometry" />
        </mxCell>
        <mxCell id="JThPRsLybrjbALJcfgjY-84" style="edgeStyle=orthogonalEdgeStyle;rounded=0;orthogonalLoop=1;jettySize=auto;html=1;exitX=0.5;exitY=1;exitDx=0;exitDy=0;entryX=0.5;entryY=0;entryDx=0;entryDy=0;" edge="1" parent="1" source="JThPRsLybrjbALJcfgjY-37" target="JThPRsLybrjbALJcfgjY-38">
          <mxGeometry relative="1" as="geometry" />
        </mxCell>
        <mxCell id="JThPRsLybrjbALJcfgjY-37" value="Electricity Control Switch &amp;amp; Meter 2" style="rounded=1;whiteSpace=wrap;html=1;absoluteArcSize=1;arcSize=14;strokeWidth=2;" vertex="1" parent="1">
          <mxGeometry x="470" y="285.25" width="128" height="44.75" as="geometry" />
        </mxCell>
        <mxCell id="JThPRsLybrjbALJcfgjY-48" style="edgeStyle=orthogonalEdgeStyle;rounded=0;orthogonalLoop=1;jettySize=auto;html=1;exitX=0;exitY=0.5;exitDx=0;exitDy=0;" edge="1" parent="1" source="JThPRsLybrjbALJcfgjY-38">
          <mxGeometry relative="1" as="geometry">
            <mxPoint x="401.3888888888889" y="359" as="targetPoint" />
          </mxGeometry>
        </mxCell>
        <mxCell id="JThPRsLybrjbALJcfgjY-85" style="edgeStyle=orthogonalEdgeStyle;rounded=0;orthogonalLoop=1;jettySize=auto;html=1;exitX=0.5;exitY=1;exitDx=0;exitDy=0;entryX=0.5;entryY=0;entryDx=0;entryDy=0;" edge="1" parent="1" source="JThPRsLybrjbALJcfgjY-38" target="JThPRsLybrjbALJcfgjY-39">
          <mxGeometry relative="1" as="geometry" />
        </mxCell>
        <mxCell id="JThPRsLybrjbALJcfgjY-38" value="Electricity Control Switch &amp;amp; Meter 3" style="rounded=1;whiteSpace=wrap;html=1;absoluteArcSize=1;arcSize=14;strokeWidth=2;" vertex="1" parent="1">
          <mxGeometry x="470" y="336.75" width="128" height="44.25" as="geometry" />
        </mxCell>
        <mxCell id="JThPRsLybrjbALJcfgjY-49" style="edgeStyle=orthogonalEdgeStyle;rounded=0;orthogonalLoop=1;jettySize=auto;html=1;exitX=0;exitY=0.5;exitDx=0;exitDy=0;" edge="1" parent="1" source="JThPRsLybrjbALJcfgjY-39">
          <mxGeometry relative="1" as="geometry">
            <mxPoint x="401.1111111111111" y="409.55555555555554" as="targetPoint" />
          </mxGeometry>
        </mxCell>
        <mxCell id="JThPRsLybrjbALJcfgjY-86" style="edgeStyle=orthogonalEdgeStyle;rounded=0;orthogonalLoop=1;jettySize=auto;html=1;exitX=0.5;exitY=1;exitDx=0;exitDy=0;entryX=0.5;entryY=0;entryDx=0;entryDy=0;" edge="1" parent="1" source="JThPRsLybrjbALJcfgjY-39" target="JThPRsLybrjbALJcfgjY-35">
          <mxGeometry relative="1" as="geometry" />
        </mxCell>
        <mxCell id="JThPRsLybrjbALJcfgjY-39" value="Electricity Control Switch &amp;amp; Meter 4" style="rounded=1;whiteSpace=wrap;html=1;absoluteArcSize=1;arcSize=14;strokeWidth=2;" vertex="1" parent="1">
          <mxGeometry x="470" y="388" width="128" height="43" as="geometry" />
        </mxCell>
        <mxCell id="JThPRsLybrjbALJcfgjY-42" style="edgeStyle=orthogonalEdgeStyle;rounded=0;orthogonalLoop=1;jettySize=auto;html=1;exitX=1;exitY=0.5;exitDx=0;exitDy=0;entryX=-0.004;entryY=0.884;entryDx=0;entryDy=0;entryPerimeter=0;" edge="1" parent="1">
          <mxGeometry relative="1" as="geometry">
            <mxPoint x="401.75" y="351.5" as="sourcePoint" />
            <mxPoint x="469.48800000000006" y="317.80899999999997" as="targetPoint" />
            <Array as="points">
              <mxPoint x="402" y="318" />
              <mxPoint x="436" y="318" />
            </Array>
          </mxGeometry>
        </mxCell>
        <mxCell id="JThPRsLybrjbALJcfgjY-43" style="edgeStyle=orthogonalEdgeStyle;rounded=0;orthogonalLoop=1;jettySize=auto;html=1;exitX=1;exitY=0.75;exitDx=0;exitDy=0;" edge="1" parent="1">
          <mxGeometry relative="1" as="geometry">
            <mxPoint x="401.75" y="404.75" as="sourcePoint" />
            <mxPoint x="470" y="369" as="targetPoint" />
            <Array as="points">
              <mxPoint x="402" y="369" />
              <mxPoint x="436" y="369" />
            </Array>
          </mxGeometry>
        </mxCell>
        <mxCell id="JThPRsLybrjbALJcfgjY-44" style="edgeStyle=orthogonalEdgeStyle;rounded=0;orthogonalLoop=1;jettySize=auto;html=1;exitX=1;exitY=0.75;exitDx=0;exitDy=0;entryX=0;entryY=0.884;entryDx=0;entryDy=0;entryPerimeter=0;" edge="1" parent="1">
          <mxGeometry relative="1" as="geometry">
            <mxPoint x="401.75" y="406.75" as="sourcePoint" />
            <mxPoint x="470" y="421.01199999999994" as="targetPoint" />
            <Array as="points">
              <mxPoint x="402" y="422" />
              <mxPoint x="470" y="422" />
            </Array>
          </mxGeometry>
        </mxCell>
        <mxCell id="JThPRsLybrjbALJcfgjY-46" style="edgeStyle=orthogonalEdgeStyle;rounded=0;orthogonalLoop=1;jettySize=auto;html=1;exitX=0;exitY=0.5;exitDx=0;exitDy=0;entryX=1.003;entryY=0.016;entryDx=0;entryDy=0;entryPerimeter=0;" edge="1" parent="1">
          <mxGeometry relative="1" as="geometry">
            <mxPoint x="469" y="258.5" as="sourcePoint" />
            <mxPoint x="401.1992499999999" y="258.408" as="targetPoint" />
            <Array as="points">
              <mxPoint x="452" y="259" />
            </Array>
          </mxGeometry>
        </mxCell>
        <mxCell id="JThPRsLybrjbALJcfgjY-47" style="edgeStyle=orthogonalEdgeStyle;rounded=0;orthogonalLoop=1;jettySize=auto;html=1;exitX=0;exitY=0.5;exitDx=0;exitDy=0;entryX=1.001;entryY=0.264;entryDx=0;entryDy=0;entryPerimeter=0;" edge="1" parent="1" source="JThPRsLybrjbALJcfgjY-37" target="rFjTU0MIjuArIsRoF-h4-16">
          <mxGeometry relative="1" as="geometry" />
        </mxCell>
        <mxCell id="JThPRsLybrjbALJcfgjY-51" style="edgeStyle=orthogonalEdgeStyle;rounded=0;orthogonalLoop=1;jettySize=auto;html=1;exitX=0;exitY=0.25;exitDx=0;exitDy=0;entryX=0.994;entryY=0.92;entryDx=0;entryDy=0;entryPerimeter=0;" edge="1" parent="1" source="JThPRsLybrjbALJcfgjY-35" target="rFjTU0MIjuArIsRoF-h4-16">
          <mxGeometry relative="1" as="geometry" />
        </mxCell>
        <mxCell id="JThPRsLybrjbALJcfgjY-52" style="edgeStyle=orthogonalEdgeStyle;rounded=0;orthogonalLoop=1;jettySize=auto;html=1;exitX=0;exitY=0.5;exitDx=0;exitDy=0;entryX=1;entryY=0.972;entryDx=0;entryDy=0;entryPerimeter=0;endArrow=none;endFill=0;startArrow=classic;startFill=1;" edge="1" parent="1">
          <mxGeometry relative="1" as="geometry">
            <mxPoint x="469" y="463" as="sourcePoint" />
            <mxPoint x="400.75" y="463.03600000000006" as="targetPoint" />
          </mxGeometry>
        </mxCell>
        <mxCell id="JThPRsLybrjbALJcfgjY-54" value="Camera 1" style="rounded=1;whiteSpace=wrap;html=1;absoluteArcSize=1;arcSize=14;strokeWidth=2;" vertex="1" parent="1">
          <mxGeometry x="42" y="604.75" width="86" height="49" as="geometry" />
        </mxCell>
        <mxCell id="JThPRsLybrjbALJcfgjY-58" value="Camera 2" style="rounded=1;whiteSpace=wrap;html=1;absoluteArcSize=1;arcSize=14;strokeWidth=2;" vertex="1" parent="1">
          <mxGeometry x="134" y="605.75" width="86" height="48" as="geometry" />
        </mxCell>
        <mxCell id="JThPRsLybrjbALJcfgjY-59" value="Camera 3" style="rounded=1;whiteSpace=wrap;html=1;absoluteArcSize=1;arcSize=14;strokeWidth=2;" vertex="1" parent="1">
          <mxGeometry x="225" y="605.75" width="86" height="47" as="geometry" />
        </mxCell>
        <mxCell id="JThPRsLybrjbALJcfgjY-60" value="Multiple Camera Controller&amp;nbsp;" style="rounded=1;whiteSpace=wrap;html=1;absoluteArcSize=1;arcSize=14;strokeWidth=2;" vertex="1" parent="1">
          <mxGeometry x="105" y="703.75" width="147" height="65" as="geometry" />
        </mxCell>
        <mxCell id="JThPRsLybrjbALJcfgjY-64" style="edgeStyle=orthogonalEdgeStyle;rounded=0;orthogonalLoop=1;jettySize=auto;html=1;exitX=0.5;exitY=1;exitDx=0;exitDy=0;" edge="1" parent="1" source="JThPRsLybrjbALJcfgjY-54">
          <mxGeometry relative="1" as="geometry">
            <mxPoint x="158" y="702.75" as="targetPoint" />
          </mxGeometry>
        </mxCell>
        <mxCell id="JThPRsLybrjbALJcfgjY-65" style="edgeStyle=orthogonalEdgeStyle;rounded=0;orthogonalLoop=1;jettySize=auto;html=1;exitX=0.5;exitY=1;exitDx=0;exitDy=0;entryX=0.488;entryY=-0.008;entryDx=0;entryDy=0;entryPerimeter=0;" edge="1" parent="1" source="JThPRsLybrjbALJcfgjY-58" target="JThPRsLybrjbALJcfgjY-60">
          <mxGeometry relative="1" as="geometry">
            <mxPoint x="177" y="699.75" as="targetPoint" />
          </mxGeometry>
        </mxCell>
        <mxCell id="JThPRsLybrjbALJcfgjY-66" style="edgeStyle=orthogonalEdgeStyle;rounded=0;orthogonalLoop=1;jettySize=auto;html=1;exitX=0.5;exitY=1;exitDx=0;exitDy=0;" edge="1" parent="1" source="JThPRsLybrjbALJcfgjY-59">
          <mxGeometry relative="1" as="geometry">
            <mxPoint x="196" y="702.75" as="targetPoint" />
          </mxGeometry>
        </mxCell>
        <mxCell id="JThPRsLybrjbALJcfgjY-69" value="Analog" style="text;html=1;strokeColor=none;fillColor=none;align=center;verticalAlign=middle;whiteSpace=wrap;rounded=0;" vertex="1" parent="1">
          <mxGeometry x="735" y="324" width="60" height="30" as="geometry" />
        </mxCell>
        <mxCell id="JThPRsLybrjbALJcfgjY-71" value="Digital" style="text;html=1;strokeColor=none;fillColor=none;align=center;verticalAlign=middle;whiteSpace=wrap;rounded=0;" vertex="1" parent="1">
          <mxGeometry x="864" y="215" width="60" height="30" as="geometry" />
        </mxCell>
        <mxCell id="JThPRsLybrjbALJcfgjY-72" value="Analog" style="text;html=1;strokeColor=none;fillColor=none;align=center;verticalAlign=middle;whiteSpace=wrap;rounded=0;" vertex="1" parent="1">
          <mxGeometry x="943.45" y="267" width="60" height="30" as="geometry" />
        </mxCell>
        <mxCell id="JThPRsLybrjbALJcfgjY-73" value="Analog" style="text;html=1;strokeColor=none;fillColor=none;align=center;verticalAlign=middle;whiteSpace=wrap;rounded=0;" vertex="1" parent="1">
          <mxGeometry x="940" y="338.75" width="60" height="30" as="geometry" />
        </mxCell>
        <mxCell id="JThPRsLybrjbALJcfgjY-90" style="edgeStyle=orthogonalEdgeStyle;rounded=0;orthogonalLoop=1;jettySize=auto;html=1;exitX=1;exitY=0.5;exitDx=0;exitDy=0;entryX=0;entryY=0.5;entryDx=0;entryDy=0;" edge="1" parent="1" source="JThPRsLybrjbALJcfgjY-74" target="JThPRsLybrjbALJcfgjY-75">
          <mxGeometry relative="1" as="geometry" />
        </mxCell>
        <mxCell id="JThPRsLybrjbALJcfgjY-74" value="Electricity Control Switch &amp;amp; Meter 6" style="rounded=1;whiteSpace=wrap;html=1;absoluteArcSize=1;arcSize=14;strokeWidth=2;" vertex="1" parent="1">
          <mxGeometry x="863" y="764.5" width="128" height="44" as="geometry" />
        </mxCell>
        <mxCell id="JThPRsLybrjbALJcfgjY-75" value="Lighting System" style="rounded=1;whiteSpace=wrap;html=1;absoluteArcSize=1;arcSize=14;strokeWidth=2;" vertex="1" parent="1">
          <mxGeometry x="1019" y="764.75" width="128" height="44" as="geometry" />
        </mxCell>
        <mxCell id="JThPRsLybrjbALJcfgjY-82" style="edgeStyle=orthogonalEdgeStyle;rounded=0;orthogonalLoop=1;jettySize=auto;html=1;exitX=0.5;exitY=1;exitDx=0;exitDy=0;entryX=0.5;entryY=0;entryDx=0;entryDy=0;" edge="1" parent="1" source="JThPRsLybrjbALJcfgjY-80" target="JThPRsLybrjbALJcfgjY-36">
          <mxGeometry relative="1" as="geometry" />
        </mxCell>
        <mxCell id="JThPRsLybrjbALJcfgjY-80" value="Energy Source" style="rounded=1;whiteSpace=wrap;html=1;absoluteArcSize=1;arcSize=14;strokeWidth=2;" vertex="1" parent="1">
          <mxGeometry x="470" y="158" width="128" height="41" as="geometry" />
        </mxCell>
        <mxCell id="JThPRsLybrjbALJcfgjY-89" style="edgeStyle=orthogonalEdgeStyle;rounded=0;orthogonalLoop=1;jettySize=auto;html=1;exitX=1;exitY=0.5;exitDx=0;exitDy=0;entryX=0;entryY=0.5;entryDx=0;entryDy=0;" edge="1" parent="1" source="JThPRsLybrjbALJcfgjY-87" target="JThPRsLybrjbALJcfgjY-74">
          <mxGeometry relative="1" as="geometry" />
        </mxCell>
        <mxCell id="JThPRsLybrjbALJcfgjY-87" value="Energy Source" style="rounded=1;whiteSpace=wrap;html=1;absoluteArcSize=1;arcSize=14;strokeWidth=2;" vertex="1" parent="1">
          <mxGeometry x="707" y="763" width="128" height="47.5" as="geometry" />
        </mxCell>
        <mxCell id="JThPRsLybrjbALJcfgjY-91" value="Raspberry Pi" style="rounded=1;whiteSpace=wrap;html=1;absoluteArcSize=1;arcSize=14;strokeWidth=2;" vertex="1" parent="1">
          <mxGeometry x="379" y="960.5" width="248" height="119" as="geometry" />
        </mxCell>
        <mxCell id="JThPRsLybrjbALJcfgjY-102" style="edgeStyle=orthogonalEdgeStyle;rounded=0;orthogonalLoop=1;jettySize=auto;html=1;exitX=0.875;exitY=0.5;exitDx=0;exitDy=0;exitPerimeter=0;" edge="1" parent="1" source="JThPRsLybrjbALJcfgjY-92">
          <mxGeometry relative="1" as="geometry">
            <mxPoint x="894.1304347826087" y="1019.1739130434785" as="targetPoint" />
          </mxGeometry>
        </mxCell>
        <mxCell id="JThPRsLybrjbALJcfgjY-92" value="Cloud" style="ellipse;shape=cloud;whiteSpace=wrap;html=1;strokeWidth=2;" vertex="1" parent="1">
          <mxGeometry x="703" y="979" width="120" height="80" as="geometry" />
        </mxCell>
        <mxCell id="JThPRsLybrjbALJcfgjY-95" style="edgeStyle=orthogonalEdgeStyle;rounded=0;orthogonalLoop=1;jettySize=auto;html=1;exitX=0.5;exitY=1;exitDx=0;exitDy=0;entryX=0.556;entryY=0.005;entryDx=0;entryDy=0;entryPerimeter=0;startArrow=classic;startFill=1;endArrow=none;endFill=0;" edge="1" parent="1">
          <mxGeometry relative="1" as="geometry">
            <mxPoint x="884" y="462" as="sourcePoint" />
            <mxPoint x="527.8879999999999" y="961.095" as="targetPoint" />
            <Array as="points">
              <mxPoint x="884" y="714" />
              <mxPoint x="528" y="714" />
            </Array>
          </mxGeometry>
        </mxCell>
        <mxCell id="JThPRsLybrjbALJcfgjY-97" style="edgeStyle=orthogonalEdgeStyle;rounded=0;orthogonalLoop=1;jettySize=auto;html=1;exitX=0.5;exitY=1;exitDx=0;exitDy=0;entryX=0.451;entryY=0;entryDx=0;entryDy=0;entryPerimeter=0;" edge="1" parent="1" source="JThPRsLybrjbALJcfgjY-60" target="JThPRsLybrjbALJcfgjY-91">
          <mxGeometry relative="1" as="geometry">
            <Array as="points">
              <mxPoint x="179" y="844" />
              <mxPoint x="491" y="844" />
            </Array>
          </mxGeometry>
        </mxCell>
        <mxCell id="JThPRsLybrjbALJcfgjY-101" style="edgeStyle=orthogonalEdgeStyle;rounded=0;orthogonalLoop=1;jettySize=auto;html=1;exitX=1;exitY=0.5;exitDx=0;exitDy=0;entryX=0.064;entryY=0.513;entryDx=0;entryDy=0;entryPerimeter=0;" edge="1" parent="1" source="JThPRsLybrjbALJcfgjY-91" target="JThPRsLybrjbALJcfgjY-92">
          <mxGeometry relative="1" as="geometry" />
        </mxCell>
        <mxCell id="JThPRsLybrjbALJcfgjY-103" value="Server" style="text;html=1;strokeColor=none;fillColor=none;align=center;verticalAlign=middle;whiteSpace=wrap;rounded=0;fontStyle=0" vertex="1" parent="1">
          <mxGeometry x="361" y="921" width="77" height="30" as="geometry" />
        </mxCell>
        <mxCell id="JThPRsLybrjbALJcfgjY-104" value="WiFi" style="text;html=1;strokeColor=none;fillColor=none;align=center;verticalAlign=middle;whiteSpace=wrap;rounded=0;fontStyle=0" vertex="1" parent="1">
          <mxGeometry x="620" y="995" width="77" height="30" as="geometry" />
        </mxCell>
        <mxCell id="JThPRsLybrjbALJcfgjY-105" value="Home Assistant" style="text;html=1;strokeColor=none;fillColor=none;align=left;verticalAlign=middle;whiteSpace=wrap;rounded=0;fontStyle=0" vertex="1" parent="1">
          <mxGeometry x="380" y="935" width="88" height="30" as="geometry" />
        </mxCell>
        <mxCell id="JThPRsLybrjbALJcfgjY-106" value="Microcontroller 1" style="text;html=1;strokeColor=none;fillColor=none;align=center;verticalAlign=middle;whiteSpace=wrap;rounded=0;" vertex="1" parent="1">
          <mxGeometry x="243" y="463" width="91" height="30" as="geometry" />
        </mxCell>
        <mxCell id="JThPRsLybrjbALJcfgjY-107" value="Microcontroller 2" style="text;html=1;strokeColor=none;fillColor=none;align=center;verticalAlign=middle;whiteSpace=wrap;rounded=0;" vertex="1" parent="1">
          <mxGeometry x="887" y="462" width="97" height="30" as="geometry" />
        </mxCell>
        <mxCell id="JThPRsLybrjbALJcfgjY-108" value="Microcontroller 1 to RPI wired communication" style="text;html=1;strokeColor=none;fillColor=none;align=left;verticalAlign=middle;whiteSpace=wrap;rounded=0;" vertex="1" parent="1">
          <mxGeometry x="354" y="669" width="145.5" height="30" as="geometry" />
        </mxCell>
        <mxCell id="JThPRsLybrjbALJcfgjY-109" value="Microcontroller 2 to RPI wired communication" style="text;html=1;strokeColor=none;fillColor=none;align=left;verticalAlign=middle;whiteSpace=wrap;rounded=0;" vertex="1" parent="1">
          <mxGeometry x="736.5" y="669" width="145.5" height="30" as="geometry" />
        </mxCell>
        <mxCell id="JThPRsLybrjbALJcfgjY-110" style="edgeStyle=orthogonalEdgeStyle;rounded=0;orthogonalLoop=1;jettySize=auto;html=1;exitX=0.577;exitY=1.004;exitDx=0;exitDy=0;entryX=0.5;entryY=0;entryDx=0;entryDy=0;startArrow=classic;startFill=1;exitPerimeter=0;endArrow=none;endFill=0;" edge="1" parent="1">
          <mxGeometry relative="1" as="geometry">
            <mxPoint x="346" y="465" as="sourcePoint" />
            <mxPoint x="511" y="960" as="targetPoint" />
            <Array as="points">
              <mxPoint x="346" y="703" />
              <mxPoint x="511" y="703" />
            </Array>
          </mxGeometry>
        </mxCell>
        <mxCell id="JThPRsLybrjbALJcfgjY-111" style="edgeStyle=orthogonalEdgeStyle;rounded=0;orthogonalLoop=1;jettySize=auto;html=1;exitX=0.5;exitY=1;exitDx=0;exitDy=0;entryX=0.556;entryY=0.005;entryDx=0;entryDy=0;entryPerimeter=0;startArrow=none;startFill=0;" edge="1" parent="1">
          <mxGeometry relative="1" as="geometry">
            <mxPoint x="875.11" y="461" as="sourcePoint" />
            <mxPoint x="518.9979999999999" y="960.095" as="targetPoint" />
            <Array as="points">
              <mxPoint x="875" y="704" />
              <mxPoint x="519" y="704" />
            </Array>
          </mxGeometry>
        </mxCell>
      </root>
    </mxGraphModel>
  </diagram>
</mxfile>
